<?xml version="1.0" encoding="UTF-8" ?>
<!DOCTYPE svg PUBLIC "-//W3C//DTD SVG 1.1//EN" "http://www.w3.org/Graphics/SVG/1.1/DTD/svg11.dtd">
<svg width="275pt" height="300pt" viewBox="0 0 275 300" version="1.1" xmlns="http://www.w3.org/2000/svg">
<path fill="#ffffff" d=" M 0.00 0.00 L 275.00 0.00 L 275.00 300.00 L 0.00 300.00 L 0.00 0.00 Z" />
<path fill="#050404" d=" M 123.99 29.98 C 140.77 21.96 159.27 16.93 177.96 17.24 C 195.46 16.90 213.26 21.41 228.00 30.98 C 234.87 36.47 241.65 42.07 248.45 47.65 C 254.87 53.44 259.52 60.88 263.57 68.44 C 268.07 77.44 271.91 86.93 273.32 96.96 C 274.12 104.61 273.86 112.31 273.75 119.98 C 274.13 134.60 269.14 148.78 262.78 161.74 C 258.36 169.80 254.04 178.20 247.19 184.51 C 251.07 202.88 249.38 222.19 243.84 240.05 C 241.78 246.49 238.98 252.72 235.16 258.31 C 235.26 261.06 233.68 263.37 231.16 264.37 C 225.74 267.01 218.73 268.21 213.48 264.57 C 206.52 259.94 202.26 252.29 199.53 244.58 C 196.41 247.01 192.99 249.00 189.34 250.52 C 189.35 259.11 189.85 267.86 187.58 276.25 C 186.06 282.44 177.96 283.24 172.84 281.68 C 160.84 277.56 153.74 266.20 143.83 258.98 C 130.33 262.50 116.19 261.91 102.39 261.38 C 93.24 268.01 82.86 275.21 70.98 274.10 C 64.03 273.44 56.86 274.08 50.15 271.77 C 43.18 275.05 35.42 275.77 27.88 276.83 C 23.39 280.45 17.32 280.91 11.81 280.16 C 9.69 279.65 6.71 278.69 6.85 275.96 C 7.67 272.98 10.06 270.88 12.31 268.93 C 14.39 259.18 17.01 249.42 21.34 240.41 C 16.98 239.58 13.76 236.06 12.19 232.06 C 11.52 232.13 10.18 232.26 9.51 232.33 C 4.21 228.45 0.18 221.83 1.64 215.08 C 3.11 209.00 7.01 203.70 11.61 199.57 C 14.97 196.98 18.83 195.12 22.22 192.55 C 22.92 186.66 25.14 181.17 27.68 175.87 C 22.38 173.48 20.26 167.52 19.75 162.12 C 19.51 154.25 24.01 146.39 31.17 142.98 C 35.70 140.38 41.10 141.51 46.06 141.11 C 50.27 140.70 53.54 143.90 55.86 147.01 C 60.78 144.73 66.01 143.16 71.33 142.14 C 72.54 141.97 73.62 141.37 74.45 140.47 C 90.47 124.77 111.99 115.42 134.00 112.07 C 160.41 107.65 188.86 112.81 210.90 128.41 C 216.81 122.34 219.80 114.00 221.33 105.82 C 223.76 89.17 215.23 72.82 203.16 61.84 C 194.45 53.32 183.15 47.13 170.95 45.69 C 153.12 44.29 135.17 46.25 117.85 50.54 C 111.68 51.80 105.44 53.62 99.08 52.95 C 95.34 52.60 91.54 52.81 87.82 52.20 C 84.73 51.65 84.14 47.20 86.51 45.47 C 87.73 44.44 89.43 44.44 90.91 44.04 C 102.78 41.72 113.78 36.32 123.99 29.98 Z" />
<path fill="#f19bbc" d=" M 152.47 22.15 C 173.69 17.38 196.73 18.09 216.74 27.20 C 220.71 29.06 224.80 30.91 228.11 33.84 C 234.67 39.36 241.36 44.71 247.99 50.14 C 249.99 51.79 251.67 53.78 253.23 55.84 C 260.80 65.92 266.29 77.51 269.62 89.66 C 272.42 99.52 271.74 109.88 271.64 120.01 C 271.92 134.33 267.02 148.22 260.81 160.94 C 256.85 168.49 252.70 176.09 246.78 182.31 C 241.19 161.75 228.83 143.37 212.50 129.79 C 221.67 120.00 225.38 105.66 223.23 92.53 C 221.06 79.27 213.18 67.48 203.18 58.76 C 193.60 49.96 181.12 44.02 168.04 43.31 C 163.15 43.16 158.25 43.33 153.36 43.22 C 152.32 38.77 150.76 34.45 149.79 29.98 C 148.84 27.04 150.85 24.40 152.47 22.15 Z" />
<path fill="#ffffff" d=" M 124.25 32.23 C 133.19 27.73 142.74 24.47 152.47 22.15 C 150.85 24.40 148.84 27.04 149.79 29.98 C 150.76 34.45 152.32 38.77 153.36 43.22 C 139.16 43.49 125.24 46.62 111.44 49.69 C 104.21 51.53 96.70 50.64 89.36 50.30 C 87.59 50.28 86.79 48.90 87.41 47.29 C 88.85 46.59 90.47 46.40 92.01 46.03 C 103.57 43.68 114.32 38.45 124.25 32.23 Z" />
<path fill="#f19bbc" d=" M 76.28 141.47 C 95.66 123.00 122.48 113.59 148.97 112.79 C 169.88 111.96 191.17 117.62 208.46 129.52 C 227.67 144.27 241.75 166.00 246.08 189.94 C 248.79 208.42 246.31 227.50 239.93 245.00 C 238.47 249.12 236.38 252.97 233.84 256.52 C 230.15 254.77 226.15 252.96 221.95 253.75 C 217.50 253.92 214.28 257.26 211.58 260.41 C 206.92 255.57 203.67 249.62 201.42 243.33 C 211.57 234.81 220.15 223.81 223.67 210.86 C 224.32 209.12 224.14 207.29 223.14 205.71 C 221.49 209.95 220.54 214.45 218.47 218.52 C 212.17 231.30 201.85 242.26 188.92 248.43 C 187.38 240.92 187.29 232.93 184.10 225.87 L 182.40 225.39 C 184.35 233.91 185.98 242.51 187.17 251.17 C 187.45 258.22 187.38 265.30 186.32 272.29 C 180.38 269.79 174.10 265.87 167.42 267.61 C 164.42 268.27 163.89 271.45 163.27 273.96 C 156.86 268.28 151.04 261.91 144.13 256.81 C 140.83 254.36 138.37 250.75 134.40 249.28 C 135.78 252.81 139.12 254.86 141.65 257.49 C 129.54 259.96 117.05 260.01 104.75 259.35 C 111.87 253.28 118.68 246.62 123.67 238.65 C 125.84 235.55 125.66 231.65 125.96 228.05 C 126.13 224.49 126.20 220.69 124.51 217.44 C 122.25 213.41 118.07 211.08 114.24 208.79 C 121.77 202.90 122.66 192.31 120.20 183.71 C 116.88 177.47 110.80 172.73 103.94 170.96 C 97.52 169.09 90.21 170.76 85.22 175.21 C 80.82 179.37 78.99 185.76 79.89 191.68 C 74.73 189.54 69.67 186.78 64.02 186.22 C 56.63 185.36 49.12 185.64 41.74 186.55 C 43.10 181.19 45.49 175.27 43.10 169.86 C 41.83 166.99 38.37 167.13 35.76 166.67 C 41.52 159.68 48.33 153.45 56.38 149.21 C 65.50 144.62 75.83 142.93 85.97 143.58 C 99.74 142.78 113.80 145.86 125.48 153.34 C 122.79 157.52 119.29 163.99 123.56 168.25 C 123.93 164.83 123.37 161.15 125.02 157.99 C 127.88 152.51 133.60 148.34 139.92 148.28 C 149.02 147.69 157.29 153.41 162.48 160.47 C 164.65 165.37 164.89 171.27 163.27 176.38 C 160.03 182.80 152.50 188.02 145.11 186.14 C 138.44 183.75 133.05 176.24 134.99 169.06 C 137.00 163.06 144.18 159.35 150.14 161.89 C 153.42 163.16 153.84 167.00 155.13 169.81 C 157.76 167.22 155.21 163.07 152.96 161.06 C 145.81 156.01 134.69 160.62 132.71 169.04 C 131.11 176.80 136.50 184.49 143.35 187.72 C 147.21 189.49 151.57 188.48 155.39 187.12 C 157.45 195.52 157.71 204.26 156.81 212.84 C 157.93 211.84 159.24 210.73 159.22 209.07 C 159.83 201.34 159.29 193.44 157.17 185.96 C 161.40 182.76 165.85 178.69 166.27 173.05 C 166.53 168.51 166.44 163.68 164.53 159.48 C 160.70 153.97 155.13 149.57 148.78 147.37 C 141.30 144.78 132.48 146.16 126.68 151.72 C 120.66 147.85 114.07 144.82 107.06 143.26 C 97.01 140.58 86.54 141.74 76.28 141.47 Z" />
<path fill="#f19bbc" d=" M 30.09 146.13 C 34.71 142.61 40.72 143.36 46.15 143.24 C 49.57 143.01 51.97 145.81 54.04 148.10 C 43.22 154.23 34.90 163.72 28.13 173.99 C 18.62 167.40 20.84 151.94 30.09 146.13 Z" />
<path fill="#ffffff" d=" M 33.82 169.49 C 36.36 169.51 39.97 168.47 41.33 171.39 C 42.74 176.70 40.60 182.06 39.18 187.13 C 34.18 188.04 29.28 189.40 24.55 191.26 C 26.31 183.53 28.92 175.82 33.82 169.49 Z" />
<path fill="#ffffff" d=" M 87.93 175.87 C 91.92 173.10 96.99 171.60 101.83 172.61 C 107.50 173.81 112.70 177.08 116.39 181.53 C 119.35 184.94 119.17 189.74 119.23 193.98 C 119.28 199.31 116.56 204.30 112.37 207.51 C 102.88 201.83 92.82 197.18 82.70 192.76 C 80.33 186.75 82.71 179.55 87.93 175.87 Z" />
<path fill="#050404" d=" M 34.46 176.75 C 36.48 177.68 36.74 179.84 36.11 181.75 C 32.63 182.71 33.58 178.57 34.46 176.75 Z" />
<path fill="#050404" d=" M 97.23 189.21 C 97.50 187.85 97.01 186.09 98.08 185.04 C 99.14 185.06 100.20 185.14 101.25 185.26 C 101.13 186.60 100.97 187.94 100.79 189.28 C 99.60 189.27 98.42 189.24 97.23 189.21 Z" />
<path fill="#f2f5cf" d=" M 43.23 188.58 C 53.31 187.54 64.15 186.80 73.53 191.38 C 88.47 197.60 103.41 204.12 117.04 212.93 C 119.58 214.62 122.09 216.73 123.10 219.71 C 124.52 224.05 123.77 228.69 123.36 233.13 C 123.01 236.99 120.37 240.08 118.12 243.04 C 109.35 253.74 98.66 263.16 86.06 269.06 C 81.43 271.39 76.17 272.21 71.03 271.91 C 64.18 271.47 57.11 271.97 50.55 269.58 C 42.13 267.13 34.07 261.73 30.56 253.43 C 28.44 249.29 29.28 244.53 30.13 240.17 C 30.09 246.91 33.91 253.35 40.26 255.89 C 49.71 259.53 59.96 261.15 70.08 260.79 C 79.86 260.44 89.71 256.64 96.40 249.36 C 100.23 245.12 102.82 239.99 105.78 235.15 C 108.71 234.93 111.32 236.22 113.91 237.37 C 113.12 234.28 109.98 232.71 106.97 233.09 C 96.65 234.77 86.59 238.93 75.96 238.51 C 62.20 238.67 49.20 233.32 36.83 227.84 C 28.16 226.21 19.38 228.72 10.82 230.11 C 7.25 228.53 4.91 224.73 3.82 221.07 C 2.28 214.96 5.85 209.08 9.58 204.53 C 12.58 200.68 17.15 198.73 21.00 195.91 C 27.57 191.45 35.57 190.02 43.23 188.58 Z" />
<path fill="#050404" d=" M 20.13 213.37 C 24.17 213.51 26.58 218.29 26.32 221.89 C 23.72 219.51 21.76 216.47 20.13 213.37 Z" />
<path fill="#050404" d=" M 44.04 220.30 C 46.49 218.61 49.06 217.08 51.24 215.02 C 51.46 215.52 51.90 216.52 52.12 217.02 C 49.92 218.99 47.25 221.61 44.04 220.30 Z" />
<path fill="#ffffff" d=" M 22.57 230.13 C 24.26 229.95 25.96 229.79 27.66 229.73 C 26.49 231.75 25.15 233.68 23.88 235.64 C 23.44 233.80 23.00 231.97 22.57 230.13 Z" />
<path fill="#ffffff" d=" M 28.91 229.53 C 31.03 229.47 33.16 229.46 35.29 229.47 C 33.86 231.38 32.45 233.29 31.00 235.18 C 30.25 233.31 29.54 231.44 28.91 229.53 Z" />
<path fill="#ffffff" d=" M 14.31 231.86 C 16.37 231.36 18.43 230.89 20.50 230.42 C 21.08 233.03 21.67 235.65 21.69 238.34 C 18.23 237.64 15.69 235.00 14.31 231.86 Z" />
<path fill="#71050b" d=" M 32.86 244.04 C 31.74 238.37 36.51 234.23 40.57 231.22 C 41.28 231.60 42.69 232.35 43.40 232.73 C 41.40 236.52 39.38 240.58 39.69 245.00 C 39.70 248.68 41.64 251.90 43.26 255.07 C 38.86 252.54 33.54 249.66 32.86 244.04 Z" />
<path fill="#f19bbc" d=" M 14.44 268.78 C 17.36 256.54 20.77 244.08 27.66 233.40 C 28.40 234.54 29.14 235.69 29.89 236.83 C 27.13 242.13 25.99 248.59 28.58 254.19 C 31.67 262.45 39.40 267.72 47.27 270.92 C 41.31 272.74 35.14 273.63 29.00 274.55 C 26.47 268.88 19.78 268.62 14.44 268.78 Z" />
<path fill="#f19bbc" d=" M 49.34 256.39 C 41.05 252.56 39.83 240.33 45.82 233.91 C 54.81 237.39 64.17 240.10 73.82 240.75 C 74.69 243.61 76.11 247.97 79.86 247.61 C 83.40 247.28 83.74 242.90 84.48 240.21 C 90.62 239.25 96.60 237.52 102.68 236.25 C 99.57 241.72 96.37 247.45 91.07 251.10 C 79.29 260.13 63.10 259.77 49.34 256.39 Z" />
<path fill="#ffffff" d=" M 75.92 240.69 C 78.03 240.62 80.14 240.60 82.25 240.60 C 81.50 242.56 81.23 246.97 78.15 245.15 C 77.16 243.79 76.58 242.21 75.92 240.69 Z" />
<path fill="#ffffff" d=" M 213.32 261.77 C 215.47 258.99 218.25 256.30 221.94 255.97 C 226.02 254.95 229.98 256.86 233.39 258.91 C 232.18 262.47 228.14 263.22 224.99 264.20 C 220.93 265.35 216.76 263.96 213.32 261.77 Z" />
<path fill="#ffffff" d=" M 166.54 269.91 C 173.42 267.79 179.92 271.77 186.00 274.46 C 185.42 275.83 184.83 277.20 184.23 278.57 C 177.97 281.58 170.88 279.34 165.58 275.45 C 165.86 273.59 166.18 271.75 166.54 269.91 Z" />
<path fill="#ffffff" d=" M 13.33 271.34 C 18.00 270.86 24.04 270.34 26.84 275.03 C 21.68 278.77 14.11 279.69 8.51 276.41 C 9.96 274.60 11.25 272.49 13.33 271.34 Z" />
</svg>
